<mxfile host="app.diagrams.net" agent="Mozilla/5.0 (Macintosh; Intel Mac OS X 10_15_7) AppleWebKit/605.1.15 (KHTML, like Gecko) Version/18.3 Safari/605.1.15" version="26.0.11">
  <diagram name="Page-1" id="MQpoqmVn6iSGyckxhZNR">
    <mxGraphModel dx="1207" dy="846" grid="1" gridSize="10" guides="1" tooltips="1" connect="1" arrows="1" fold="1" page="1" pageScale="1" pageWidth="1100" pageHeight="850" math="0" shadow="0">
      <root>
        <mxCell id="0" />
        <mxCell id="1" parent="0" />
        <mxCell id="Ow3qcQlYVCKKRhZR8bd9-1" value="" style="outlineConnect=0;dashed=0;verticalLabelPosition=bottom;verticalAlign=top;align=center;html=1;shape=mxgraph.aws3.management_console;fillColor=#D2D3D3;gradientColor=none;" vertex="1" parent="1">
          <mxGeometry x="30" y="215" width="63" height="63" as="geometry" />
        </mxCell>
        <mxCell id="Ow3qcQlYVCKKRhZR8bd9-2" value="" style="outlineConnect=0;dashed=0;verticalLabelPosition=bottom;verticalAlign=top;align=center;html=1;shape=mxgraph.aws3.mobile_client;fillColor=#D2D3D3;gradientColor=none;" vertex="1" parent="1">
          <mxGeometry x="52.5" y="435" width="40.5" height="63" as="geometry" />
        </mxCell>
        <mxCell id="Ow3qcQlYVCKKRhZR8bd9-3" value="" style="outlineConnect=0;dashed=0;verticalLabelPosition=bottom;verticalAlign=top;align=center;html=1;shape=mxgraph.aws3.vpc_nat_gateway;fillColor=#F58536;gradientColor=none;rotation=-180;" vertex="1" parent="1">
          <mxGeometry x="200" y="273.26" width="149" height="155.48" as="geometry" />
        </mxCell>
        <mxCell id="Ow3qcQlYVCKKRhZR8bd9-17" style="rounded=0;orthogonalLoop=1;jettySize=auto;html=1;entryX=1;entryY=0.5;entryDx=0;entryDy=0;entryPerimeter=0;" edge="1" parent="1" source="Ow3qcQlYVCKKRhZR8bd9-1" target="Ow3qcQlYVCKKRhZR8bd9-3">
          <mxGeometry relative="1" as="geometry" />
        </mxCell>
        <mxCell id="Ow3qcQlYVCKKRhZR8bd9-18" style="rounded=0;orthogonalLoop=1;jettySize=auto;html=1;entryX=1;entryY=0.5;entryDx=0;entryDy=0;entryPerimeter=0;" edge="1" parent="1" source="Ow3qcQlYVCKKRhZR8bd9-2" target="Ow3qcQlYVCKKRhZR8bd9-3">
          <mxGeometry relative="1" as="geometry" />
        </mxCell>
        <mxCell id="Ow3qcQlYVCKKRhZR8bd9-40" value="" style="group" vertex="1" connectable="0" parent="1">
          <mxGeometry x="760" y="40" width="90" height="100" as="geometry" />
        </mxCell>
        <mxCell id="Ow3qcQlYVCKKRhZR8bd9-38" value="" style="html=1;verticalLabelPosition=bottom;align=center;labelBackgroundColor=#ffffff;verticalAlign=top;strokeWidth=2;strokeColor=#0080F0;shadow=0;dashed=0;shape=mxgraph.ios7.icons.data;" vertex="1" parent="Ow3qcQlYVCKKRhZR8bd9-40">
          <mxGeometry width="73.3211498567618" height="90.9090909090909" as="geometry" />
        </mxCell>
        <mxCell id="Ow3qcQlYVCKKRhZR8bd9-39" value="" style="dashed=0;outlineConnect=0;html=1;align=center;labelPosition=center;verticalLabelPosition=bottom;verticalAlign=top;shape=mxgraph.weblogos.json" vertex="1" parent="Ow3qcQlYVCKKRhZR8bd9-40">
          <mxGeometry x="39.99548454015607" y="49.27090909090909" width="43.35967598537982" height="50.72727272727272" as="geometry" />
        </mxCell>
        <mxCell id="Ow3qcQlYVCKKRhZR8bd9-19" value="" style="rounded=1;whiteSpace=wrap;html=1;movable=1;resizable=1;rotatable=1;deletable=1;editable=1;locked=0;connectable=1;container=0;" vertex="1" parent="1">
          <mxGeometry x="470" y="40" width="240" height="360" as="geometry" />
        </mxCell>
        <mxCell id="Ow3qcQlYVCKKRhZR8bd9-20" value="Internal API Services" style="text;html=1;align=center;verticalAlign=middle;resizable=0;points=[];autosize=1;strokeColor=none;fillColor=none;container=0;" vertex="1" parent="1">
          <mxGeometry x="520" y="50" width="140" height="30" as="geometry" />
        </mxCell>
        <mxCell id="Ow3qcQlYVCKKRhZR8bd9-4" value="" style="aspect=fixed;sketch=0;html=1;dashed=0;whitespace=wrap;verticalLabelPosition=bottom;verticalAlign=top;fillColor=#2875E2;strokeColor=#ffffff;points=[[0.005,0.63,0],[0.1,0.2,0],[0.9,0.2,0],[0.5,0,0],[0.995,0.63,0],[0.72,0.99,0],[0.5,1,0],[0.28,0.99,0]];shape=mxgraph.kubernetes.icon2;kubernetesLabel=1;prIcon=api;container=0;" vertex="1" parent="1">
          <mxGeometry x="517" y="90" width="125" height="120" as="geometry" />
        </mxCell>
        <mxCell id="Ow3qcQlYVCKKRhZR8bd9-5" value="" style="outlineConnect=0;dashed=0;verticalLabelPosition=bottom;verticalAlign=top;align=center;html=1;shape=mxgraph.aws3.users;fillColor=#D2D3D3;gradientColor=none;container=0;" vertex="1" parent="1">
          <mxGeometry x="597" y="113.0768790650749" width="66" height="72.69216905498592" as="geometry" />
        </mxCell>
        <mxCell id="Ow3qcQlYVCKKRhZR8bd9-30" value="Event Service" style="text;html=1;align=center;verticalAlign=middle;resizable=0;points=[];autosize=1;strokeColor=none;fillColor=none;container=0;" vertex="1" parent="1">
          <mxGeometry x="529.5" y="205.38468140238768" width="100" height="30" as="geometry" />
        </mxCell>
        <mxCell id="Ow3qcQlYVCKKRhZR8bd9-75" value="" style="group" vertex="1" connectable="0" parent="1">
          <mxGeometry x="752" y="178" width="242" height="220" as="geometry" />
        </mxCell>
        <mxCell id="Ow3qcQlYVCKKRhZR8bd9-76" value="" style="group" vertex="1" connectable="0" parent="Ow3qcQlYVCKKRhZR8bd9-75">
          <mxGeometry width="242" height="220" as="geometry" />
        </mxCell>
        <mxCell id="Ow3qcQlYVCKKRhZR8bd9-21" value="" style="rounded=1;whiteSpace=wrap;html=1;" vertex="1" parent="Ow3qcQlYVCKKRhZR8bd9-76">
          <mxGeometry width="242" height="220" as="geometry" />
        </mxCell>
        <mxCell id="Ow3qcQlYVCKKRhZR8bd9-22" value="External API Services" style="text;html=1;align=center;verticalAlign=middle;resizable=0;points=[];autosize=1;strokeColor=none;fillColor=none;" vertex="1" parent="Ow3qcQlYVCKKRhZR8bd9-76">
          <mxGeometry x="51" y="10" width="140" height="30" as="geometry" />
        </mxCell>
        <mxCell id="Ow3qcQlYVCKKRhZR8bd9-14" value="" style="group" vertex="1" connectable="0" parent="Ow3qcQlYVCKKRhZR8bd9-75">
          <mxGeometry x="40" y="50" width="188" height="150" as="geometry" />
        </mxCell>
        <mxCell id="Ow3qcQlYVCKKRhZR8bd9-15" value="" style="aspect=fixed;sketch=0;html=1;dashed=0;whitespace=wrap;verticalLabelPosition=bottom;verticalAlign=top;fillColor=#2875E2;strokeColor=#ffffff;points=[[0.005,0.63,0],[0.1,0.2,0],[0.9,0.2,0],[0.5,0,0],[0.995,0.63,0],[0.72,0.99,0],[0.5,1,0],[0.28,0.99,0]];shape=mxgraph.kubernetes.icon2;kubernetesLabel=1;prIcon=api" vertex="1" parent="Ow3qcQlYVCKKRhZR8bd9-14">
          <mxGeometry width="125" height="120" as="geometry" />
        </mxCell>
        <mxCell id="Ow3qcQlYVCKKRhZR8bd9-16" value="" style="shape=image;html=1;verticalAlign=top;verticalLabelPosition=bottom;labelBackgroundColor=#ffffff;imageAspect=0;aspect=fixed;image=https://cdn0.iconfinder.com/data/icons/business-startup-10/50/77-128.png" vertex="1" parent="Ow3qcQlYVCKKRhZR8bd9-14">
          <mxGeometry x="90" y="26.53939406298222" width="98" height="98" as="geometry" />
        </mxCell>
        <mxCell id="Ow3qcQlYVCKKRhZR8bd9-32" value="Genome" style="text;html=1;align=center;verticalAlign=middle;resizable=0;points=[];autosize=1;strokeColor=none;fillColor=none;" vertex="1" parent="Ow3qcQlYVCKKRhZR8bd9-14">
          <mxGeometry x="27.5" y="115.38339904828408" width="70" height="30" as="geometry" />
        </mxCell>
        <mxCell id="Ow3qcQlYVCKKRhZR8bd9-60" value="" style="rounded=1;whiteSpace=wrap;html=1;" vertex="1" parent="1">
          <mxGeometry x="472" y="425" width="242" height="355" as="geometry" />
        </mxCell>
        <mxCell id="Ow3qcQlYVCKKRhZR8bd9-61" value="" style="group" vertex="1" connectable="0" parent="1">
          <mxGeometry x="509" y="465" width="198" height="160" as="geometry" />
        </mxCell>
        <mxCell id="Ow3qcQlYVCKKRhZR8bd9-62" value="" style="aspect=fixed;sketch=0;html=1;dashed=0;whitespace=wrap;verticalLabelPosition=bottom;verticalAlign=top;fillColor=#2875E2;strokeColor=#ffffff;points=[[0.005,0.63,0],[0.1,0.2,0],[0.9,0.2,0],[0.5,0,0],[0.995,0.63,0],[0.72,0.99,0],[0.5,1,0],[0.28,0.99,0]];shape=mxgraph.kubernetes.icon2;kubernetesLabel=1;prIcon=api" vertex="1" parent="Ow3qcQlYVCKKRhZR8bd9-61">
          <mxGeometry y="9.142551428842223" width="125" height="120" as="geometry" />
        </mxCell>
        <mxCell id="Ow3qcQlYVCKKRhZR8bd9-63" value="" style="shape=image;html=1;verticalAlign=top;verticalLabelPosition=bottom;labelBackgroundColor=#ffffff;imageAspect=0;aspect=fixed;image=https://cdn2.iconfinder.com/data/icons/weather-color-2/500/weather-17-128.png" vertex="1" parent="Ow3qcQlYVCKKRhZR8bd9-61">
          <mxGeometry x="70" width="128" height="128" as="geometry" />
        </mxCell>
        <mxCell id="Ow3qcQlYVCKKRhZR8bd9-64" value="OpenWeather" style="text;html=1;align=center;verticalAlign=middle;resizable=0;points=[];autosize=1;strokeColor=none;fillColor=none;" vertex="1" parent="Ow3qcQlYVCKKRhZR8bd9-61">
          <mxGeometry x="12.5" y="125.71543214184165" width="100" height="30" as="geometry" />
        </mxCell>
        <mxCell id="Ow3qcQlYVCKKRhZR8bd9-70" value="External API Services" style="text;html=1;align=center;verticalAlign=middle;resizable=0;points=[];autosize=1;strokeColor=none;fillColor=none;" vertex="1" parent="1">
          <mxGeometry x="523" y="435" width="140" height="30" as="geometry" />
        </mxCell>
        <mxCell id="Ow3qcQlYVCKKRhZR8bd9-71" value="" style="group" vertex="1" connectable="0" parent="1">
          <mxGeometry x="512" y="625" width="190" height="150" as="geometry" />
        </mxCell>
        <mxCell id="Ow3qcQlYVCKKRhZR8bd9-72" value="" style="aspect=fixed;sketch=0;html=1;dashed=0;whitespace=wrap;verticalLabelPosition=bottom;verticalAlign=top;fillColor=#2875E2;strokeColor=#ffffff;points=[[0.005,0.63,0],[0.1,0.2,0],[0.9,0.2,0],[0.5,0,0],[0.995,0.63,0],[0.72,0.99,0],[0.5,1,0],[0.28,0.99,0]];shape=mxgraph.kubernetes.icon2;kubernetesLabel=1;prIcon=api" vertex="1" parent="Ow3qcQlYVCKKRhZR8bd9-71">
          <mxGeometry width="125" height="120" as="geometry" />
        </mxCell>
        <mxCell id="Ow3qcQlYVCKKRhZR8bd9-73" value="MapQuest" style="text;html=1;align=center;verticalAlign=middle;resizable=0;points=[];autosize=1;strokeColor=none;fillColor=none;" vertex="1" parent="Ow3qcQlYVCKKRhZR8bd9-71">
          <mxGeometry x="22.5" y="115.38339904828408" width="80" height="30" as="geometry" />
        </mxCell>
        <mxCell id="Ow3qcQlYVCKKRhZR8bd9-74" value="" style="html=1;verticalLabelPosition=bottom;align=center;labelBackgroundColor=#ffffff;verticalAlign=top;strokeWidth=2;strokeColor=#0080F0;shadow=0;dashed=0;shape=mxgraph.ios7.icons.map;" vertex="1" parent="Ow3qcQlYVCKKRhZR8bd9-71">
          <mxGeometry x="100" y="22.5" width="80" height="75" as="geometry" />
        </mxCell>
        <mxCell id="Ow3qcQlYVCKKRhZR8bd9-77" value="" style="group" vertex="1" connectable="0" parent="1">
          <mxGeometry x="517.005" y="240" width="159.59000000000003" height="154.00859230926847" as="geometry" />
        </mxCell>
        <mxCell id="Ow3qcQlYVCKKRhZR8bd9-8" value="" style="aspect=fixed;sketch=0;html=1;dashed=0;whitespace=wrap;verticalLabelPosition=bottom;verticalAlign=top;fillColor=#2875E2;strokeColor=#ffffff;points=[[0.005,0.63,0],[0.1,0.2,0],[0.9,0.2,0],[0.5,0,0],[0.995,0.63,0],[0.72,0.99,0],[0.5,1,0],[0.28,0.99,0]];shape=mxgraph.kubernetes.icon2;kubernetesLabel=1;prIcon=api;container=0;" vertex="1" parent="Ow3qcQlYVCKKRhZR8bd9-77">
          <mxGeometry width="125" height="120" as="geometry" />
        </mxCell>
        <mxCell id="Ow3qcQlYVCKKRhZR8bd9-10" value="" style="shape=image;html=1;verticalAlign=top;verticalLabelPosition=bottom;labelBackgroundColor=#ffffff;imageAspect=0;aspect=fixed;image=https://cdn0.iconfinder.com/data/icons/business-startup-10/50/77-128.png;container=0;" vertex="1" parent="Ow3qcQlYVCKKRhZR8bd9-77">
          <mxGeometry x="90" y="30.410000000000025" width="69.59" height="69.59" as="geometry" />
        </mxCell>
        <mxCell id="Ow3qcQlYVCKKRhZR8bd9-29" value="Currency&amp;nbsp;&lt;div&gt;Conversion API&lt;/div&gt;" style="text;html=1;align=center;verticalAlign=middle;resizable=0;points=[];autosize=1;strokeColor=none;fillColor=none;container=0;" vertex="1" parent="Ow3qcQlYVCKKRhZR8bd9-77">
          <mxGeometry x="7.5" y="114.00859230926847" width="110" height="40" as="geometry" />
        </mxCell>
        <mxCell id="Ow3qcQlYVCKKRhZR8bd9-78" style="rounded=0;orthogonalLoop=1;jettySize=auto;html=1;" edge="1" parent="1" source="Ow3qcQlYVCKKRhZR8bd9-10">
          <mxGeometry relative="1" as="geometry">
            <mxPoint x="750" y="305" as="targetPoint" />
          </mxGeometry>
        </mxCell>
        <mxCell id="Ow3qcQlYVCKKRhZR8bd9-79" style="rounded=0;orthogonalLoop=1;jettySize=auto;html=1;entryX=1;entryY=0.25;entryDx=0;entryDy=0;" edge="1" parent="1" source="Ow3qcQlYVCKKRhZR8bd9-21" target="Ow3qcQlYVCKKRhZR8bd9-10">
          <mxGeometry relative="1" as="geometry" />
        </mxCell>
        <mxCell id="Ow3qcQlYVCKKRhZR8bd9-80" style="rounded=0;orthogonalLoop=1;jettySize=auto;html=1;entryX=0.76;entryY=0;entryDx=0;entryDy=0;entryPerimeter=0;" edge="1" parent="1" source="Ow3qcQlYVCKKRhZR8bd9-38" target="Ow3qcQlYVCKKRhZR8bd9-5">
          <mxGeometry relative="1" as="geometry" />
        </mxCell>
        <mxCell id="Ow3qcQlYVCKKRhZR8bd9-81" style="rounded=0;orthogonalLoop=1;jettySize=auto;html=1;exitX=1;exitY=0.5;exitDx=0;exitDy=0;exitPerimeter=0;entryX=0.034;entryY=0.662;entryDx=0;entryDy=0;entryPerimeter=0;" edge="1" parent="1" source="Ow3qcQlYVCKKRhZR8bd9-5" target="Ow3qcQlYVCKKRhZR8bd9-38">
          <mxGeometry relative="1" as="geometry" />
        </mxCell>
        <mxCell id="Ow3qcQlYVCKKRhZR8bd9-82" style="rounded=0;orthogonalLoop=1;jettySize=auto;html=1;entryX=0.145;entryY=0.855;entryDx=0;entryDy=0;entryPerimeter=0;startArrow=classic;startFill=1;" edge="1" parent="1" source="Ow3qcQlYVCKKRhZR8bd9-4" target="Ow3qcQlYVCKKRhZR8bd9-3">
          <mxGeometry relative="1" as="geometry" />
        </mxCell>
        <mxCell id="Ow3qcQlYVCKKRhZR8bd9-83" style="rounded=0;orthogonalLoop=1;jettySize=auto;html=1;entryX=0;entryY=0.5;entryDx=0;entryDy=0;entryPerimeter=0;startArrow=classic;startFill=1;" edge="1" parent="1" source="Ow3qcQlYVCKKRhZR8bd9-8" target="Ow3qcQlYVCKKRhZR8bd9-3">
          <mxGeometry relative="1" as="geometry" />
        </mxCell>
        <mxCell id="Ow3qcQlYVCKKRhZR8bd9-84" style="rounded=0;orthogonalLoop=1;jettySize=auto;html=1;exitX=0.1;exitY=0.2;exitDx=0;exitDy=0;exitPerimeter=0;entryX=0.145;entryY=0.145;entryDx=0;entryDy=0;entryPerimeter=0;startArrow=classic;startFill=1;" edge="1" parent="1" source="Ow3qcQlYVCKKRhZR8bd9-62" target="Ow3qcQlYVCKKRhZR8bd9-3">
          <mxGeometry relative="1" as="geometry" />
        </mxCell>
        <mxCell id="Ow3qcQlYVCKKRhZR8bd9-85" style="rounded=0;orthogonalLoop=1;jettySize=auto;html=1;exitX=0.1;exitY=0.2;exitDx=0;exitDy=0;exitPerimeter=0;entryX=0.5;entryY=0;entryDx=0;entryDy=0;entryPerimeter=0;startArrow=classic;startFill=1;" edge="1" parent="1" source="Ow3qcQlYVCKKRhZR8bd9-72" target="Ow3qcQlYVCKKRhZR8bd9-3">
          <mxGeometry relative="1" as="geometry" />
        </mxCell>
        <mxCell id="Ow3qcQlYVCKKRhZR8bd9-86" style="rounded=0;orthogonalLoop=1;jettySize=auto;html=1;entryX=1;entryY=0.5;entryDx=0;entryDy=0;entryPerimeter=0;" edge="1" parent="1" source="Ow3qcQlYVCKKRhZR8bd9-3" target="Ow3qcQlYVCKKRhZR8bd9-1">
          <mxGeometry relative="1" as="geometry" />
        </mxCell>
        <mxCell id="Ow3qcQlYVCKKRhZR8bd9-87" style="rounded=0;orthogonalLoop=1;jettySize=auto;html=1;entryX=1;entryY=0.5;entryDx=0;entryDy=0;entryPerimeter=0;" edge="1" parent="1" source="Ow3qcQlYVCKKRhZR8bd9-3" target="Ow3qcQlYVCKKRhZR8bd9-2">
          <mxGeometry relative="1" as="geometry" />
        </mxCell>
        <mxCell id="Ow3qcQlYVCKKRhZR8bd9-89" value="API Gateway" style="text;html=1;align=center;verticalAlign=middle;resizable=0;points=[];autosize=1;strokeColor=none;fillColor=none;" vertex="1" parent="1">
          <mxGeometry x="229.5" y="240" width="90" height="30" as="geometry" />
        </mxCell>
        <mxCell id="Ow3qcQlYVCKKRhZR8bd9-90" value="Client 1" style="text;html=1;align=center;verticalAlign=middle;resizable=0;points=[];autosize=1;strokeColor=none;fillColor=none;" vertex="1" parent="1">
          <mxGeometry x="31.5" y="278" width="60" height="30" as="geometry" />
        </mxCell>
        <mxCell id="Ow3qcQlYVCKKRhZR8bd9-91" value="Client 2" style="text;html=1;align=center;verticalAlign=middle;resizable=0;points=[];autosize=1;strokeColor=none;fillColor=none;" vertex="1" parent="1">
          <mxGeometry x="42.75" y="498" width="60" height="30" as="geometry" />
        </mxCell>
      </root>
    </mxGraphModel>
  </diagram>
</mxfile>
